<svg width="75" height="18" viewBox="0 0 75 18" fill="none" xmlns="http://www.w3.org/2000/svg">
    <path
        d="M17.6145 16.4304H13.455L12.1825 13.4105H5.25028L4.09097 16.4304H0L6.25003 1.17849H10.7276L17.6145 16.4304ZM8.54578 4.82298L6.273 10.749H11.0461L8.54578 4.82298ZM32.724 1.17849H36.0878V16.4304H32.2235V6.90359L28.0415 11.6888H27.4508L23.269 6.90359V16.4302H19.4047V1.17849H22.7685L27.7459 6.83626L32.724 1.17849ZM45.8789 1.17849C51.538 1.17849 54.4468 4.6443 54.4468 8.8262C54.4468 13.2093 51.6289 16.4304 45.4468 16.4304H39.0372V1.17849H45.8789ZM42.9012 13.635H45.4237C49.3103 13.635 50.4696 11.0403 50.4696 8.8036C50.4696 6.18687 49.0374 3.97352 45.3782 3.97352H42.9011V13.635H42.9012ZM62.1346 4.79484L57.2622 0H75V17.4532L70.1276 12.6589V4.79484H62.1346ZM62.1289 5.75564L57.1125 10.6911V17.6H64.1333L69.1494 12.6645H62.1289V5.75564Z"
        fill="white" />
</svg>