<svg width="30" height="35" viewBox="0 0 30 35" fill="none" xmlns="http://www.w3.org/2000/svg">
    <path
        d="M24.782 18.5944C24.8312 23.891 29.4286 25.6536 29.4795 25.6761C29.4406 25.8004 28.7449 28.1879 27.0574 30.6541C25.5986 32.7862 24.0846 34.9105 21.6995 34.9545C19.356 34.9977 18.6024 33.5648 15.9231 33.5648C13.2446 33.5648 12.4073 34.9105 10.1889 34.9977C7.88671 35.0848 6.13363 32.6921 4.66272 30.5678C1.65709 26.2224 -0.639825 18.2889 2.44436 12.9336C3.97651 10.2741 6.71459 8.59003 9.68653 8.54684C11.9472 8.50372 14.081 10.0677 15.463 10.0677C16.8441 10.0677 19.4371 8.18687 22.1631 8.4631C23.3042 8.51059 26.5075 8.92407 28.5645 11.9349C28.3987 12.0376 24.7423 14.1662 24.782 18.5944ZM20.3776 5.58827C21.5998 4.10881 22.4225 2.04925 22.1981 0C20.4363 0.0708071 18.3059 1.17399 17.0423 2.65265C15.9098 3.96206 14.918 6.05787 15.1856 8.06656C17.1493 8.21849 19.1553 7.06868 20.3776 5.58827Z"
        fill="black" />
</svg>