<svg width="100" height="14" viewBox="0 0 100 14" fill="none" xmlns="http://www.w3.org/2000/svg">
<path d="M18.3636 0.120728H14.9142V13.0352H18.3636V0.120728Z" fill="white"/>
<path d="M38.7267 0.154602H42.9593L47.9418 13.1191H44.1591L43.1926 10.3529H38.3435L37.3103 13.1191H33.7942L38.7267 0.154602ZM40.8264 2.83748H40.793L39.1267 7.88663H42.3761L40.8264 2.83748Z" fill="white"/>
<path d="M49.3583 0.154602H55.3073C57.7402 0.154602 59.5233 1.22109 59.5233 3.43739C59.5233 5.07045 58.6901 5.98696 57.257 6.47021V6.5202C58.99 6.87014 59.8732 7.80332 59.8732 9.38639C59.8732 12.4859 57.157 13.1358 54.8241 13.1358H49.375V0.154602M52.8077 10.6695H53.8242C55.074 10.6695 56.3905 10.4862 56.3905 9.16976C56.3905 7.75333 55.0407 7.62002 53.8576 7.62002H52.8077V10.6695ZM52.8077 5.28708H53.7742C54.9074 5.28708 56.0572 5.00379 56.0572 3.90397C56.0572 2.72084 54.9574 2.60419 53.8076 2.60419H52.8077V5.28708Z" fill="white"/>
<path d="M64.656 8.23658L59.8401 0.154602H63.8228L66.3724 5.37039L68.8719 0.154602H72.8546L68.1054 8.23658V13.1191H64.656V8.23658Z" fill="white"/>
<path d="M77.0203 2.72084H73.8209V0.154602H83.6692V2.72084H80.4697V13.1191H77.0203V2.72084Z" fill="white"/>
<path d="M85.1523 0.154602H94.3007V2.62086H88.6017V5.28707H93.9841V7.73666H88.6017V10.6695H94.5007V13.1191H85.1523V0.154602Z" fill="white"/>
<path d="M7.21545 2.7705C4.9325 2.95381 3.66605 4.47022 3.66605 6.41989C3.66605 8.31957 5.43242 9.9193 7.11547 9.9193H7.48208H8.1153C8.1153 9.9193 8.5319 9.9193 8.5319 9.51937V5.45339H12.0813C12.0813 7.73634 12.0646 12.9021 12.0646 12.9021C12.0646 12.9021 8.58189 12.9021 6.5489 12.9021C2.73287 12.9021 0 9.736 0 6.43655C0 2.85382 2.96617 -0.129009 6.66555 0.0043023L11.948 0.0209672V2.78717H7.21545" fill="white"/>
<path d="M27.4953 2.7705C25.1957 2.95381 23.9459 4.47022 23.9459 6.41989C23.9459 8.31957 25.6956 9.9193 27.412 9.9193H27.7786H28.3952C28.3952 9.9193 28.8118 9.9193 28.8118 9.51937V5.45339H32.3445C32.3445 7.73634 32.3445 12.9021 32.3445 12.9021C32.3445 12.9021 28.8451 12.9021 26.8288 12.9021C23.0128 12.9021 20.2965 9.736 20.2965 6.43655C20.2965 2.85382 23.246 -0.129009 26.9621 0.0043023H32.2279V2.7705H27.4953Z" fill="white"/>
<path d="M96.584 0.554096H95.9674V0.304138H97.5171V0.554096H96.8839V2.3038H96.584V0.554096Z" fill="white"/>
<path d="M97.8004 0.304138H98.2669L98.9002 1.97053L99.5167 0.304138H100V2.3038H99.7V0.570761L99.0335 2.3038H98.7502L98.1003 0.570761H98.0836V2.3038H97.8004V0.304138Z" fill="white"/>
</svg>
