<svg width="75" height="15" viewBox="0 0 75 15" fill="none" xmlns="http://www.w3.org/2000/svg">
<path d="M71.8162 1.88512C71.8162 1.03333 72.5005 0.335133 73.3383 0.335133C73.7433 0.335133 74.1203 0.5027 74.4135 0.781977C74.7068 1.07522 74.8604 1.46621 74.8604 1.87116C74.8604 2.27611 74.7068 2.6671 74.4135 2.96034C74.1203 3.25358 73.7433 3.42115 73.3383 3.42115C72.5005 3.42115 71.8162 2.73692 71.8162 1.88512ZM71.6906 1.88512C71.6906 2.80674 72.4306 3.56079 73.3523 3.56079C73.7991 3.56079 74.2041 3.39322 74.5113 3.07205C74.8185 2.75088 75 2.33197 75 1.88512C75 1.43828 74.8324 1.01936 74.5113 0.698194C74.1901 0.377025 73.7851 0.209458 73.3523 0.209458C72.4306 0.209458 71.6906 0.963508 71.6906 1.88512ZM72.7239 2.87656H72.9613V2.09458H73.4919C73.5757 2.09458 73.6455 2.09458 73.7014 2.12251C73.7712 2.1644 73.8131 2.24818 73.827 2.3599L73.855 2.6671C73.855 2.73692 73.855 2.77881 73.855 2.80674C73.8689 2.83467 73.8689 2.84863 73.8829 2.8626H74.1761V2.8207C74.1342 2.80674 74.1203 2.76485 74.1063 2.70899C74.0924 2.68106 74.0923 2.62521 74.0923 2.55539L74.0784 2.318C74.0784 2.20629 74.0505 2.13647 74.0225 2.09458C73.9806 2.05269 73.9248 2.0108 73.855 1.98287C73.9388 1.94098 73.9946 1.88512 74.0365 1.8153C74.0784 1.74548 74.0923 1.6617 74.0923 1.54999C74.0923 1.34053 74.0086 1.20089 73.855 1.11711C73.7712 1.07522 73.6595 1.06125 73.5338 1.06125H72.7379L72.7239 2.87656ZM72.9473 1.88512V1.25675H73.5059C73.5897 1.25675 73.6595 1.27071 73.7014 1.29864C73.7851 1.34053 73.827 1.43828 73.827 1.56395C73.827 1.68963 73.7991 1.77341 73.7293 1.8153C73.6734 1.8572 73.5897 1.88512 73.4779 1.88512H72.9473ZM6.78645 4.18916L0 14.8576H4.63601L11.1711 4.66394L6.78645 4.18916ZM34.7282 3.95178V0H21.5323C19.731 0.111711 18.949 0.977472 18.3625 1.59188C17.7341 2.24818 17.385 3.63061 17.385 3.63061V0.0279278H10.3612C9.83057 0.0279278 9.32787 0.25135 8.95085 0.781977C8.55986 1.29864 6.95401 3.95178 6.95401 3.95178H34.7282ZM70.6153 3.95178V0H56.4979C54.7105 0.111711 53.9145 0.977472 53.3281 1.59188C52.6997 2.24818 52.3506 3.63061 52.3506 3.63061V3.95178H70.6153ZM39.3642 0.0139639H35.4124V3.95178H39.3642V0.0139639ZM52.3087 0.0139639H48.3709V3.95178H52.3087V0.0139639ZM52.3087 5.37609L48.4267 5.13871V9.7049C48.4267 9.7049 48.4128 11.0175 47.1421 11.0175H40.4953C40.4953 11.0175 39.3642 10.9198 39.3642 9.71886V4.5243L35.4543 4.24502V11.2409C36.0827 14.5923 39.1128 14.8576 39.1128 14.8576C39.1128 14.8576 39.42 14.8715 39.4759 14.8855H48.4826C48.4826 14.8855 52.3366 14.5783 52.3366 10.8639L52.3087 5.37609ZM13.3634 14.8576H31.8237C35.0354 14.2152 35.3705 11.2828 35.3705 11.2828C35.5241 10.4171 35.4403 9.7049 35.4403 9.7049C35.3426 9.11841 34.2255 6.52113 31.8237 6.29771C30.3854 6.15807 17.5805 5.13871 17.5805 5.13871C17.8319 6.42338 18.4044 7.07969 18.7954 7.44275C19.6891 8.29454 21.0994 8.54589 21.0994 8.54589C21.4346 8.57382 30.9719 9.36976 30.9719 9.36976C31.2791 9.38373 31.8516 9.46751 31.8376 10.2216C31.8376 10.3193 31.7539 10.9756 31.0277 10.9756H17.2175V5.11078L13.3774 4.8315C13.3634 4.8315 13.3634 14.8576 13.3634 14.8576ZM52.3366 14.8855H66.4681C70.0149 14.676 70.5176 11.3107 70.5176 11.3107C70.6433 10.431 70.5455 9.7049 70.5455 9.7049C70.4478 8.90896 69.3167 6.50717 66.901 6.26978C65.4766 6.13014 52.588 5.37609 52.588 5.37609C52.965 6.70266 53.4817 7.10761 53.8727 7.47068C54.7663 8.33644 56.0929 8.53193 56.0929 8.53193C56.428 8.55986 66.0631 9.36976 66.0631 9.36976C66.3703 9.38373 66.9987 9.41166 66.9987 10.1657C66.9987 10.3891 66.887 10.6265 66.7474 10.7522C66.7474 10.7522 66.4122 10.9337 66.091 10.9337H52.3785L52.3366 14.8855Z" fill="black"/>
</svg>
