<svg width="66" height="20" viewBox="0 0 66 20" fill="none" xmlns="http://www.w3.org/2000/svg">
<path d="M0.479492 13.9572V0.289062H2.88046V13.9572H0.479492Z" fill="black"/>
<path d="M9.02639 4.04132C5.94804 4.04132 3.81778 6.40818 3.81778 9.11728C3.81778 12.1408 6.13526 14.2237 9.05032 14.2237C11.8169 14.2237 14.2176 12.1791 14.2176 9.11074C14.2176 6.53053 12.2283 4.04132 9.02639 4.04132ZM8.99812 6.35747C10.6091 6.35747 11.7949 7.61148 11.7949 9.12597C11.7949 10.7318 10.4875 11.9032 9.04162 11.9032C7.3331 11.9032 6.25789 10.549 6.25789 9.13032C6.25789 7.57525 7.47182 6.35747 8.99812 6.35747Z" fill="black"/>
<path d="M20.2501 4.04132C17.1717 4.04132 15.0414 6.40818 15.0414 9.11728C15.0414 12.1408 17.3589 14.2237 20.274 14.2237C23.0405 14.2237 25.4413 12.1791 25.4413 9.11074C25.4413 7.30385 24.6588 6.50213 24.6588 6.50213L25.3243 6.27393V4.32532H21.9142C21.9142 4.32532 21.1749 4.04132 20.2501 4.04132ZM20.2218 6.35747C21.8328 6.35747 23.0186 7.61148 23.0186 9.12597C23.0186 10.7318 21.7112 11.9032 20.2653 11.9032C18.5568 11.9032 17.4816 10.549 17.4816 9.13032C17.4816 7.57525 18.6955 6.35747 20.2218 6.35747Z" fill="black"/>
<path d="M23.0015 14.6251C23.0015 16.2309 21.6942 17.411 20.2483 17.411C18.5397 17.411 17.4602 16.0438 17.4602 14.6251H15.0244C15.0244 17.6486 17.3419 19.7315 20.2569 19.7315C23.0235 19.7315 25.4242 17.6935 25.4242 14.6251H23.0015Z" fill="black"/>
<path d="M26.4029 13.9574V4.32568H28.8039V13.9574H26.4029Z" fill="black"/>
<path d="M31.1353 13.957V6.48271H29.8479V4.32532H31.1353V1.36761H33.5363V4.32532H34.8586V6.48271H33.5363V13.957H31.1353Z" fill="black"/>
<path d="M29.1882 1.58991C29.1882 2.46799 28.4764 3.17982 27.5983 3.17982C26.7203 3.17982 26.0084 2.46799 26.0084 1.58991C26.0084 0.711827 26.7203 0 27.5983 0C28.4764 0 29.1882 0.711827 29.1882 1.58991Z" fill="black"/>
<path d="M40.2563 4.03503C37.1634 4.03503 35.1695 6.40313 35.1695 9.20451C35.1695 12.0994 37.1701 14.2304 40.3064 14.2304C43.232 14.2304 44.6712 12.4036 44.6712 12.4036L43.0662 10.7965C43.0662 10.7965 41.8543 12.1035 40.3368 12.1035C39.0718 12.1035 38.0604 11.3974 37.7075 10.1027H45.1888V9.44156C45.1888 6.80354 43.6619 4.03503 40.2563 4.03503ZM40.1802 6.14893C41.2863 6.14893 42.4174 6.74065 42.6704 8.15408H37.6423C37.8414 7.16052 38.7106 6.14893 40.1802 6.14893Z" fill="black"/>
<path d="M51.1942 14.2315C48.0925 14.2315 45.979 11.8692 45.979 9.08383C45.979 6.20932 48.3676 4.03308 51.1842 4.03308C53.907 4.03308 55.3008 5.95524 55.3008 5.95524L53.6259 7.62253C53.6259 7.62253 52.6557 6.36899 51.1728 6.36899C49.5293 6.36899 48.4055 7.62624 48.4055 9.12069C48.4055 10.6987 49.6009 11.9093 51.1543 11.9093C52.6611 11.9093 53.6235 10.6578 53.6235 10.6578L55.3152 12.3242C55.3152 12.3242 53.935 14.2315 51.1942 14.2315Z" fill="black"/>
<path d="M56.1889 13.9642V0.254333H58.5899V5.2914C58.5899 5.2914 59.5092 4.03319 61.509 4.03319C64.0231 4.03319 65.4796 5.90208 65.4796 8.29234V13.9642H63.0786V8.65523C63.0786 7.0494 62.0789 6.38318 60.9713 6.38318C59.7094 6.38318 58.5899 7.10132 58.5899 8.77949V13.9642H56.1889Z" fill="black"/>
</svg>
