<svg width="35" height="35" viewBox="0 0 35 35" fill="none" xmlns="http://www.w3.org/2000/svg">
<path d="M15.7462 34.928C13.0517 34.67 10.3236 33.7023 7.98014 32.1733C6.01635 30.892 5.57289 30.3653 5.57289 29.3142C5.57289 27.2029 7.89436 23.5049 11.8663 19.2892C14.122 16.895 17.2641 14.0886 17.604 14.1646C18.2645 14.3123 23.5458 19.4639 25.5229 21.8889C28.6493 25.7238 30.0867 28.8636 29.3565 30.2635C28.8014 31.3276 25.3572 33.4074 22.8268 34.2065C20.7413 34.865 18.0024 35.1441 15.7462 34.928ZM2.92058 27.119C1.28872 24.6155 0.464247 22.1509 0.0661884 18.5861C-0.0652515 17.4091 -0.0181503 16.7358 0.364654 14.3198C0.841766 11.3086 2.55659 7.82502 4.61711 5.68116C5.4947 4.76807 5.57308 4.74583 6.64281 5.10619C7.94186 5.54381 9.32915 6.50192 11.4806 8.44737L12.7359 9.58245L12.0504 10.4246C8.86842 14.3337 5.50934 19.8748 4.2434 23.3029C3.55519 25.1666 3.27761 27.0374 3.57373 27.8162C3.77365 28.342 3.59002 28.146 2.92058 27.119ZM31.5648 27.5448C31.726 26.7578 31.5221 25.3125 31.0442 23.8548C30.0093 20.6978 26.5501 14.8248 23.3736 10.8317L22.3737 9.57463L23.4555 8.58129C24.868 7.28427 25.8487 6.50764 26.9069 5.84811C27.7419 5.32766 28.9352 4.86693 29.4481 4.86693C29.7644 4.86693 30.8777 6.02229 31.7764 7.28316C33.1684 9.23599 34.1924 11.6032 34.7112 14.0676C35.0464 15.6599 35.0743 19.0682 34.7652 20.6566C34.5115 21.9601 33.9758 23.6509 33.4532 24.7977C33.0616 25.6569 32.0877 27.3257 31.6609 27.8687C31.4415 28.1479 31.4413 28.1473 31.5648 27.5448ZM16.0347 4.27079C14.5691 3.52652 12.3081 2.7276 11.0591 2.51266C10.6213 2.4373 9.87433 2.39528 9.39928 2.41927C8.36878 2.47131 8.41481 2.41742 10.0679 1.63639C11.4423 0.987062 12.5888 0.605226 14.145 0.278449C15.8957 -0.0891516 19.1865 -0.0934656 20.9093 0.269581C22.7701 0.661702 24.9613 1.47711 26.196 2.23694L26.5629 2.46277L25.721 2.42025C24.0479 2.33576 21.6096 3.01169 18.9917 4.28569C18.2021 4.66996 17.5151 4.97686 17.4652 4.9677C17.4152 4.95853 16.7715 4.64493 16.0347 4.27079Z" fill="white"/>
</svg>
