<svg width="172" height="30" viewBox="0 0 172 30" fill="none" xmlns="http://www.w3.org/2000/svg">
<path fill-rule="evenodd" clip-rule="evenodd" d="M99.9004 1.3999H71.2004L66.9004 8.6999H78.7004V29.0999H87.0004V8.6999H95.6004L99.9004 1.3999Z" fill="black"/>
<path d="M112.499 0L95.6992 29.1H103.999L112.499 14.4L117.099 22.2H110.399L106.499 29.1H129.399L112.499 0Z" fill="black"/>
<path fill-rule="evenodd" clip-rule="evenodd" d="M4.4 1.3999H27.1L13.6 22.3999H28.5L24.7 29.0999H0L13.7 8.0999H0.5L4.4 1.3999Z" fill="black"/>
<path fill-rule="evenodd" clip-rule="evenodd" d="M47.9 22.8999C44.2 22.8999 41.3 19.4999 41.3 15.3999C41.3 11.2999 44.2 7.9999 47.9 7.9999C51.6 7.9999 54.6 11.2999 54.6 15.3999C54.6 19.4999 51.6 22.8999 47.9 22.8999ZM47.9 0.899902C39.6 0.899902 33 7.2999 33 15.2999C33 23.3999 39.7 29.7999 47.9 29.7999C56.2 29.7999 62.8 23.2999 62.8 15.2999C62.9 7.2999 56.2 0.899902 47.9 0.899902Z" fill="black"/>
<path d="M146.1 22.3999C142.4 22.3999 140 19.1999 140 15.2999C140 11.3999 142.7 8.2999 146.1 8.2999H156.7L160.9 0.899902H145.1C140 0.899902 135.6 3.8999 133.3 8.2999C132.2 10.3999 131.6 12.7999 131.6 15.2999C131.6 18.6999 132.7 21.7999 134.5 24.2999C137 27.5999 140.8 29.7999 145.1 29.7999H157.2L161.4 22.3999H146.1Z" fill="black"/>
<path d="M169.499 3.2998C169.499 2.9998 169.399 2.7998 169.199 2.5998C168.999 2.3998 168.699 2.2998 168.199 2.2998H166.699V5.5998H167.299V4.3998H167.999L168.799 5.5998H169.499L168.599 4.2998C169.199 4.1998 169.499 3.7998 169.499 3.2998ZM167.399 3.8998V2.7998H168.299C168.699 2.7998 168.999 2.9998 168.999 3.3998C168.999 3.6998 168.699 3.9998 168.299 3.9998L167.399 3.8998Z" fill="black"/>
<path d="M168.1 0.899902C166.4 0.899902 165 2.2999 165 3.9999C165 5.6999 166.4 6.9999 168.1 6.9999C169.8 6.9999 171.2 5.5999 171.2 3.8999C171.2 2.1999 169.8 0.899902 168.1 0.899902ZM168.1 6.4999C166.7 6.4999 165.5 5.3999 165.5 3.8999C165.5 2.4999 166.6 1.2999 168.1 1.2999C169.5 1.2999 170.7 2.3999 170.7 3.8999C170.6 5.3999 169.5 6.4999 168.1 6.4999Z" fill="black"/>
</svg>
