<svg width="727" height="112" viewBox="0 0 727 112" fill="none" xmlns="http://www.w3.org/2000/svg">
<path d="M689.616 48.8614V64.0054H700.259V79.0307C700.292 80.3734 700.219 81.8214 699.988 82.98C699.565 85.7827 696.903 90.5547 689.348 90.5547C681.839 90.5547 679.224 85.7827 678.771 82.98C678.58 81.8214 678.499 80.3734 678.499 79.0307V31.5734C678.499 29.8947 678.612 28.0574 678.968 26.6667C679.484 24.1374 681.725 19.1494 689.292 19.1494C697.235 19.1494 699.217 24.4081 699.672 26.6667C699.971 28.1627 699.988 30.6721 699.988 30.6721V36.4347H726.139V33.0281C726.139 33.0281 726.257 29.4734 725.94 26.1561C723.975 6.67739 707.925 0.514716 689.523 0.514716C671.087 0.514716 655.363 6.73472 653.072 26.1561C652.865 27.9321 652.549 31.1267 652.549 33.0281V76.684C652.549 78.5854 652.611 80.0574 652.963 83.532C654.669 102.475 671.087 109.189 689.449 109.189C707.925 109.189 724.229 102.475 725.965 83.532C726.273 80.0574 726.305 78.5854 726.347 76.684V48.8614H689.616ZM509.303 3.30805H483.041V80.1254C483.083 81.464 483.041 82.968 482.811 84.0707C482.263 86.6494 480.077 91.612 472.832 91.612C465.68 91.612 463.437 86.6494 462.931 84.0707C462.668 82.968 462.635 81.464 462.668 80.1254V3.30805H436.415V77.7414C436.381 79.66 436.532 83.58 436.645 84.6067C438.457 104.003 453.744 110.3 472.832 110.3C491.957 110.3 507.235 104.003 509.08 84.6067C509.225 83.58 509.416 79.66 509.303 77.7414V3.30805ZM268.009 3.30805L254.909 84.476L241.817 3.30805H199.456L197.209 107.145H223.161L223.864 11.02L241.72 107.145H268.051L285.923 11.02L286.628 107.145H312.645L310.323 3.30805H268.009ZM111.168 3.30805L91.9333 107.145H119.983L134.477 11.02L148.624 107.145H176.479L157.324 3.30805H111.168ZM601.081 86.9094L576.628 3.30805H538.095V106.063H563.585L562.105 19.7867L588.367 106.063H625.323V3.30805H599.665L601.081 86.9094ZM365.297 30.3321C364.836 28.2814 364.969 26.1027 365.208 24.9641C365.951 21.6401 368.184 18.0147 374.619 18.0147C380.616 18.0147 384.132 21.7534 384.132 27.364V33.7134H409.732V26.476C409.732 4.10272 389.673 0.58805 375.151 0.58805C356.86 0.58805 341.923 6.61739 339.195 23.4521C338.473 28.0334 338.295 32.1 339.443 37.2894C343.891 58.28 380.433 64.3694 385.737 77.644C386.673 80.1587 386.405 83.3654 385.928 85.2547C385.133 88.7094 382.809 92.184 375.92 92.184C369.459 92.184 365.569 88.4694 365.569 82.8707L365.561 72.9054H338.007V80.8267C338.007 103.78 355.985 110.705 375.349 110.705C393.895 110.705 409.212 104.368 411.669 87.1894C412.841 78.3134 411.957 72.532 411.487 70.3547C407.193 48.8254 368.245 42.3494 365.297 30.3321ZM27.6 30.0774C27.0973 27.984 27.2146 25.7747 27.4946 24.6227C28.204 21.3147 30.4506 17.6254 36.9986 17.6254C43.0719 17.6254 46.6479 21.4001 46.6479 27.0561V33.4827H72.548V26.1881C72.548 3.60006 52.1826 4.7321e-05 37.5013 4.7321e-05C19.0573 4.7321e-05 3.98666 6.12272 1.22933 23.0787C0.474663 27.7334 0.345287 31.8281 1.43595 37.0747C5.93195 58.304 42.8359 64.4427 48.2053 77.876C49.2106 80.3734 48.9066 83.58 48.408 85.5427C47.556 89.0334 45.2133 92.5574 38.2666 92.5574C31.78 92.5574 27.9 88.7787 27.9 83.1027L27.864 73.1107H0V81.0507C0 104.267 18.2333 111.248 37.748 111.248C56.5093 111.248 71.9159 104.855 74.4293 87.4774C75.6786 78.52 74.7413 72.6907 74.32 70.48C69.9373 48.6867 30.556 42.232 27.6 30.0774Z" fill="white"/>
</svg>
