<svg width="48" height="38" viewBox="0 0 48 38" fill="none" xmlns="http://www.w3.org/2000/svg">
<path d="M0.9715 27.1042C-0.827451 28.3035 -0.227801 30.5822 3.60996 31.6615C7.56765 32.9808 11.8851 33.3405 16.0827 32.621C16.3225 32.621 16.5624 32.501 16.6823 32.501V28.4234L12.6047 29.7426C11.0456 30.2224 9.48653 30.3423 7.92744 29.9825C6.72814 29.6227 6.968 28.9031 8.40716 28.3035L16.6823 25.4252V20.9878L5.16905 24.9454C3.72989 25.4252 2.29073 26.1447 0.9715 27.1042ZM28.7953 9.11468V20.7479C33.7124 23.1465 37.5502 20.7479 37.5502 14.5115C37.5502 8.15524 35.2715 5.27692 28.6753 2.99825C25.1974 1.79895 21.5995 0.71958 18.0016 0V34.6598L26.3967 37.1783V8.03531C26.3967 6.71608 26.3967 5.75664 27.3561 6.11643C28.6753 6.47622 28.7953 7.79545 28.7953 9.11468ZM44.3862 24.3458C40.9082 23.1465 37.1904 22.6668 33.5925 23.0266C31.6736 23.1465 29.8746 23.6262 28.1956 24.2259L27.8358 24.3458V29.0231L35.6313 26.1447C37.1904 25.665 38.7495 25.5451 40.3085 25.9049C41.5078 26.2647 41.268 26.9843 39.8288 27.5839L27.8358 32.0213V36.5787L44.3862 30.4622C45.5855 29.9825 46.6648 29.3829 47.6243 28.4234C48.4638 27.2241 48.104 25.5451 44.3862 24.3458Z" fill="black"/>
</svg>
