<svg width="800" height="193" viewBox="0 0 800 193" fill="none" xmlns="http://www.w3.org/2000/svg">
<path d="M798.101 8.5C795.268 4.73334 792.434 1.89998 778.268 0.966644C774.501 0.966644 763.168 0 743.334 0C691.334 0 655.468 16.0667 637.501 47.2333C642.234 16.0667 612.001 0 545.868 0C468.401 0 419.268 31.1667 399.434 94.4667C391.901 118.1 391.901 137 397.568 152.133H378.668C364.501 153.033 345.601 154 333.335 154C305.001 154 287.001 149.267 280.401 139.833C274.734 131.333 274.734 115.267 282.301 91.6333C294.568 52.9 323.868 35.9 371.101 35.9C395.668 35.9 419.268 38.7333 419.268 38.7333C422.101 38.7333 424.001 34.9667 424.001 32.1333L423.068 29.3L421.168 16.0666C420.235 7.56665 413.601 2.83331 402.268 0.966644C391.901 -2.23517e-05 383.368 0 372.035 0H371.101C309.701 0 266.234 20.8 242.634 60.4667C251.134 19.8333 222.768 0 157.601 0C120.768 0 94.2678 0.966668 79.1678 2.83333C66.9012 4.73333 59.3345 9.46665 56.5012 17.9667L50.8345 34.9667C49.9012 37.8 51.8012 39.7 55.5678 39.7C58.4012 39.7 69.7345 37.8 88.6345 36.8333C107.175 35.2623 125.763 34.3173 144.368 34C180.268 34 196.334 43.4667 190.668 61.4C189.701 65.2 186.868 68.0333 182.168 68.9667C148.168 74.6333 120.768 78.4333 100.901 81.2667C44.2345 88.8 11.1678 105.8 2.66783 134.167C-9.63217 172.9 20.6012 191.767 93.3345 191.767C129.268 191.767 160.434 189.9 185.001 185.167C199.168 182.333 206.734 179.5 209.568 170.067L222.768 126.6C221.834 170.067 251.101 191.767 313.468 191.767C339.935 191.767 365.435 190.833 377.701 188.933C390.001 187.067 396.601 184.233 399.434 174.767L402.268 161.567C415.501 182.333 444.801 192.733 489.201 192.733C536.434 192.733 563.834 191.767 571.368 188.933C574.1 188.32 576.644 187.058 578.785 185.253C580.926 183.449 582.601 181.155 583.668 178.567L584.601 175.733L590.268 157.767C591.234 154.933 589.334 153.033 585.534 153.033L555.334 154.933C535.468 155.9 519.434 156.833 508.068 156.833C486.368 156.833 472.201 154.933 463.668 152.1C451.401 147.367 445.734 138.867 446.668 124.7L542.101 112.433C584.601 106.767 613.901 93.5333 628.068 72.7666L595.001 183.267C594.068 185.167 595.001 187.067 595.934 188C596.901 188.933 598.768 189.9 602.568 189.9H642.234C648.834 189.9 651.668 186.1 652.634 183.267L687.568 61.4C692.301 45.3667 706.468 37.8 732.901 37.8C756.568 37.8 773.568 37.8 784.901 38.7333H785.834C787.734 38.7333 791.501 37.8 794.334 33.0667L800.001 16.0666C800.001 13.2333 800.001 10.4 798.101 8.5ZM161.368 154.033C149.101 155.933 131.134 156.867 108.468 156.867C67.8345 156.867 50.8345 148.367 55.5678 132.3C59.3345 120.967 69.7345 113.4 86.7345 111.5L178.401 99.2333L161.368 154.033ZM583.668 55.7C579.868 68 561.934 76.5 529.801 81.2333L453.301 91.6L455.168 85C461.801 64.2 470.301 51 481.634 43.4333C492.968 35.8666 511.868 32.1 538.301 32.1C573.301 33.0333 588.434 40.6 583.668 55.7Z" fill="white"/>
</svg>
